SplineFontDB: 3.2
FontName: SwastixTube
FullName: Swastix Tube
FamilyName: Swastix Tube
Weight: Regular
Copyright: Shankar Sivarajan
UComments: "2023-6-18: Created with FontForge (http://fontforge.org)"
Version: 
ItalicAngle: 0
UnderlinePosition: -70
UnderlineWidth: 35
Ascent: 600
Descent: 100
InvalidEm: 0
LayerCount: 2
Layer: 0 0 "Back" 1
Layer: 1 0 "Fore" 0
XUID: [1021 146 -1796264217 10339]
FSType: 0
OS2Version: 0
OS2_WeightWidthSlopeOnly: 0
OS2_UseTypoMetrics: 1
CreationTime: 1687110331
ModificationTime: 1695058705
PfmFamily: 17
TTFWeight: 400
TTFWidth: 5
LineGap: 63
VLineGap: 0
OS2TypoAscent: 0
OS2TypoAOffset: 1
OS2TypoDescent: 0
OS2TypoDOffset: 1
OS2TypoLinegap: 63
OS2WinAscent: 0
OS2WinAOffset: 1
OS2WinDescent: 0
OS2WinDOffset: 1
HheadAscent: 0
HheadAOffset: 1
HheadDescent: 0
HheadDOffset: 1
OS2Vendor: 'PfEd'
Lookup: 1 0 0 "NoCaps" { "NoCaps subtable"  } ['liga' ('latn' <'dflt' > 'DFLT' <'dflt' > ) ]
Lookup: 260 0 0 "'mark' Mark Positioning lookup 1" { "'mark' Mark Positioning lookup 1-1"  } ['mark' ('DFLT' <'dflt' > 'latn' <'dflt' > ) ]
MarkAttachClasses: 1
DEI: 91125
LangName: 1033
Encoding: win
Compacted: 1
UnicodeInterp: none
NameList: AGL For New Fonts
DisplaySize: -48
AntiAlias: 1
FitToEm: 0
WinInfo: 0 39 14
BeginPrivate: 0
EndPrivate
TeXData: 1 0 0 419430 209715 139810 0 1048576 139810 783286 444596 497025 792723 393216 433062 380633 303038 157286 324010 404750 52429 2506097 1059062 262144
AnchorClass2: "grid_center" "'mark' Mark Positioning lookup 1-1" "grid_center""" 
BeginChars: 257 55

StartChar: A
Encoding: 65 65 2
Width: 600
Flags: HW
HStem: 400 100<50 350>
AnchorPoint: "grid_center" 300 250 mark 0
LayerCount: 2
Fore
SplineSet
324.995097764 450 m 0
 324.995097764 436.187031342 313.812835975 425.004902236 300 425.004902236 c 2
 100 425.004902236 l 2
 86.1870313421 425.004902236 75.0049022365 436.187164025 75.0049022365 450 c 0
 75.0049022365 463.812968658 86.187164025 474.995097764 100 474.995097764 c 2
 300 474.995097764 l 2
 313.812968658 474.995097764 324.995097764 463.812835975 324.995097764 450 c 0
EndSplineSet
Substitution2: "NoCaps subtable" a
EndChar

StartChar: B
Encoding: 66 66 3
Width: 600
Flags: HW
HStem: 400 100<50 350>
AnchorPoint: "grid_center" 300 250 mark 0
LayerCount: 2
Fore
SplineSet
524.995097764 450 m 0
 524.995097764 436.187031342 513.812835975 425.004902236 500 425.004902236 c 2
 300 425.004902236 l 2
 286.187031342 425.004902236 275.004902236 436.187164025 275.004902236 450 c 0
 275.004902236 463.812968658 286.187164025 474.995097764 300 474.995097764 c 2
 500 474.995097764 l 2
 513.812968658 474.995097764 524.995097764 463.812835975 524.995097764 450 c 0
EndSplineSet
Substitution2: "NoCaps subtable" b
EndChar

StartChar: C
Encoding: 67 67 4
Width: 600
Flags: HW
VStem: 50 100<200 500>
AnchorPoint: "grid_center" 300 250 mark 0
LayerCount: 2
Fore
SplineSet
100 225.004902236 m 0
 86.1870313421 225.004902236 75.0049022365 236.187164025 75.0049022365 250 c 2
 75.0049022365 450 l 2
 75.0049022365 463.812968658 86.187164025 474.995097764 100 474.995097764 c 0
 113.812968658 474.995097764 124.995097764 463.812835975 124.995097764 450 c 2
 124.995097764 250 l 2
 124.995097764 236.187031342 113.812835975 225.004902236 100 225.004902236 c 0
EndSplineSet
Substitution2: "NoCaps subtable" c
EndChar

StartChar: D
Encoding: 68 68 5
Width: 600
Flags: HW
VStem: 250 100<200 500>
AnchorPoint: "grid_center" 300 250 mark 0
LayerCount: 2
Fore
SplineSet
300 225.004902236 m 0
 286.187031342 225.004902236 275.004902236 236.187164025 275.004902236 250 c 2
 275.004902236 450 l 2
 275.004902236 463.812968658 286.187164025 474.995097764 300 474.995097764 c 0
 313.812968658 474.995097764 324.995097764 463.812835975 324.995097764 450 c 2
 324.995097764 250 l 2
 324.995097764 236.187031342 313.812835975 225.004902236 300 225.004902236 c 0
EndSplineSet
Substitution2: "NoCaps subtable" d
EndChar

StartChar: E
Encoding: 69 69 6
Width: 600
Flags: HW
VStem: 450 100<200 500>
AnchorPoint: "grid_center" 300 250 mark 0
LayerCount: 2
Fore
SplineSet
500 225.004902236 m 0
 486.187031342 225.004902236 475.004902236 236.187164025 475.004902236 250 c 2
 475.004902236 450 l 2
 475.004902236 463.812968658 486.187164025 474.995097764 500 474.995097764 c 0
 513.812968658 474.995097764 524.995097764 463.812835975 524.995097764 450 c 2
 524.995097764 250 l 2
 524.995097764 236.187031342 513.812835975 225.004902236 500 225.004902236 c 0
EndSplineSet
Substitution2: "NoCaps subtable" e
EndChar

StartChar: F
Encoding: 70 70 7
Width: 600
Flags: HW
HStem: 400 100<50 350>
AnchorPoint: "grid_center" 300 250 mark 0
LayerCount: 2
Fore
SplineSet
324.995097764 250 m 0
 324.995097764 236.187031342 313.812835975 225.004902236 300 225.004902236 c 2
 100 225.004902236 l 2
 86.1870313421 225.004902236 75.0049022365 236.187164025 75.0049022365 250 c 0
 75.0049022365 263.812968658 86.187164025 274.995097764 100 274.995097764 c 2
 300 274.995097764 l 2
 313.812968658 274.995097764 324.995097764 263.812835975 324.995097764 250 c 0
EndSplineSet
Substitution2: "NoCaps subtable" f
EndChar

StartChar: G
Encoding: 71 71 8
Width: 600
Flags: HW
HStem: 400 100<50 350>
AnchorPoint: "grid_center" 300 250 mark 0
LayerCount: 2
Fore
SplineSet
524.995097764 250 m 0
 524.995097764 236.187031342 513.812835975 225.004902236 500 225.004902236 c 2
 300 225.004902236 l 2
 286.187031342 225.004902236 275.004902236 236.187164025 275.004902236 250 c 0
 275.004902236 263.812968658 286.187164025 274.995097764 300 274.995097764 c 2
 500 274.995097764 l 2
 513.812968658 274.995097764 524.995097764 263.812835975 524.995097764 250 c 0
EndSplineSet
Substitution2: "NoCaps subtable" g
EndChar

StartChar: H
Encoding: 72 72 9
Width: 600
Flags: HW
HStem: 0 21G<50 150>
VStem: 50 100<0 300>
AnchorPoint: "grid_center" 300 250 mark 0
LayerCount: 2
Fore
SplineSet
100 25.0049022365 m 0
 86.1870313421 25.0049022365 75.0049022365 36.187164025 75.0049022365 50 c 2
 75.0049022365 250 l 2
 75.0049022365 263.812968658 86.187164025 274.995097764 100 274.995097764 c 0
 113.812968658 274.995097764 124.995097764 263.812835975 124.995097764 250 c 2
 124.995097764 50 l 2
 124.995097764 36.1870313421 113.812835975 25.0049022365 100 25.0049022365 c 0
EndSplineSet
Substitution2: "NoCaps subtable" h
EndChar

StartChar: I
Encoding: 73 73 10
Width: 600
Flags: HW
HStem: 0 21G<250 350>
VStem: 250 100<0 300>
AnchorPoint: "grid_center" 300 250 mark 0
LayerCount: 2
Fore
SplineSet
300 25.0049022365 m 0
 286.187031342 25.0049022365 275.004902236 36.187164025 275.004902236 50 c 2
 275.004902236 250 l 2
 275.004902236 263.812968658 286.187164025 274.995097764 300 274.995097764 c 0
 313.812968658 274.995097764 324.995097764 263.812835975 324.995097764 250 c 2
 324.995097764 50 l 2
 324.995097764 36.1870313421 313.812835975 25.0049022365 300 25.0049022365 c 0
EndSplineSet
Substitution2: "NoCaps subtable" i
EndChar

StartChar: J
Encoding: 74 74 11
Width: 600
Flags: HW
HStem: 0 21G<450 550>
VStem: 450 100<0 300>
AnchorPoint: "grid_center" 300 250 mark 0
LayerCount: 2
Fore
SplineSet
500 25.0049022365 m 0
 486.187031342 25.0049022365 475.004902236 36.187164025 475.004902236 50 c 2
 475.004902236 250 l 2
 475.004902236 263.812968658 486.187164025 274.995097764 500 274.995097764 c 0
 513.812968658 274.995097764 524.995097764 263.812835975 524.995097764 250 c 2
 524.995097764 50 l 2
 524.995097764 36.1870313421 513.812835975 25.0049022365 500 25.0049022365 c 0
EndSplineSet
Substitution2: "NoCaps subtable" j
EndChar

StartChar: K
Encoding: 75 75 12
Width: 600
Flags: HW
HStem: 400 100<50 350>
AnchorPoint: "grid_center" 300 250 mark 0
LayerCount: 2
Fore
SplineSet
324.995097764 50 m 0
 324.995097764 36.1870313421 313.812835975 25.0049022365 300 25.0049022365 c 2
 100 25.0049022365 l 2
 86.1870313421 25.0049022365 75.0049022365 36.187164025 75.0049022365 50 c 0
 75.0049022365 63.8129686579 86.187164025 74.9950977635 100 74.9950977635 c 2
 300 74.9950977635 l 2
 313.812968658 74.9950977635 324.995097764 63.812835975 324.995097764 50 c 0
EndSplineSet
Substitution2: "NoCaps subtable" k
EndChar

StartChar: L
Encoding: 76 76 13
Width: 600
Flags: HW
HStem: 400 100<50 350>
AnchorPoint: "grid_center" 300 250 mark 0
LayerCount: 2
Fore
SplineSet
524.995097764 50 m 0
 524.995097764 36.1870313421 513.812835975 25.0049022365 500 25.0049022365 c 2
 300 25.0049022365 l 2
 286.187031342 25.0049022365 275.004902236 36.187164025 275.004902236 50 c 0
 275.004902236 63.8129686579 286.187164025 74.9950977635 300 74.9950977635 c 2
 500 74.9950977635 l 2
 513.812968658 74.9950977635 524.995097764 63.812835975 524.995097764 50 c 0
EndSplineSet
Substitution2: "NoCaps subtable" l
EndChar

StartChar: one
Encoding: 49 49 14
Width: 600
Flags: HW
AnchorPoint: "grid_center" 300 250 mark 0
LayerCount: 2
Fore
SplineSet
300 477.995097764 m 0
 315.804544338 477.995097764 327.995097764 465.803833789 327.995097764 450 c 0
 327.995097764 434.195455662 315.803833789 422.004902236 300 422.004902236 c 0
 284.195455662 422.004902236 272.004902236 434.196166211 272.004902236 450 c 0
 272.004902236 465.804544338 284.196166211 477.995097764 300 477.995097764 c 0
EndSplineSet
EndChar

StartChar: two
Encoding: 50 50 15
Width: 600
Flags: HW
AnchorPoint: "grid_center" 300 250 mark 0
LayerCount: 2
Fore
SplineSet
500 477.995097764 m 0
 515.804544338 477.995097764 527.995097764 465.803833789 527.995097764 450 c 0
 527.995097764 434.195455662 515.803833789 422.004902236 500 422.004902236 c 0
 484.195455662 422.004902236 472.004902236 434.196166211 472.004902236 450 c 0
 472.004902236 465.804544338 484.196166211 477.995097764 500 477.995097764 c 0
EndSplineSet
EndChar

StartChar: three
Encoding: 51 51 16
Width: 600
Flags: HW
AnchorPoint: "grid_center" 300 250 mark 0
LayerCount: 2
Fore
SplineSet
100 277.995097764 m 0
 115.804544338 277.995097764 127.995097764 265.803833789 127.995097764 250 c 0
 127.995097764 234.195455662 115.803833789 222.004902236 100 222.004902236 c 0
 84.1954556622 222.004902236 72.0049022365 234.196166211 72.0049022365 250 c 0
 72.0049022365 265.804544338 84.1961662111 277.995097764 100 277.995097764 c 0
EndSplineSet
EndChar

StartChar: four
Encoding: 52 52 17
Width: 600
Flags: HW
AnchorPoint: "grid_center" 300 250 mark 0
LayerCount: 2
Fore
SplineSet
300 277.995097764 m 0
 315.804544338 277.995097764 327.995097764 265.803833789 327.995097764 250 c 0
 327.995097764 234.195455662 315.803833789 222.004902236 300 222.004902236 c 0
 284.195455662 222.004902236 272.004902236 234.196166211 272.004902236 250 c 0
 272.004902236 265.804544338 284.196166211 277.995097764 300 277.995097764 c 0
EndSplineSet
EndChar

StartChar: five
Encoding: 53 53 18
Width: 600
Flags: HW
AnchorPoint: "grid_center" 300 250 mark 0
LayerCount: 2
Fore
SplineSet
500 277.995097764 m 0
 515.804544338 277.995097764 527.995097764 265.803833789 527.995097764 250 c 0
 527.995097764 234.195455662 515.803833789 222.004902236 500 222.004902236 c 0
 484.195455662 222.004902236 472.004902236 234.196166211 472.004902236 250 c 0
 472.004902236 265.804544338 484.196166211 277.995097764 500 277.995097764 c 0
EndSplineSet
EndChar

StartChar: six
Encoding: 54 54 19
Width: 600
Flags: HW
AnchorPoint: "grid_center" 300 250 mark 0
LayerCount: 2
Fore
SplineSet
100 77.9950977635 m 0
 115.804544338 77.9950977635 127.995097764 65.8038337889 127.995097764 50 c 0
 127.995097764 34.1954556622 115.803833789 22.0049022365 100 22.0049022365 c 0
 84.1954556622 22.0049022365 72.0049022365 34.1961662111 72.0049022365 50 c 0
 72.0049022365 65.8045443378 84.1961662111 77.9950977635 100 77.9950977635 c 0
EndSplineSet
EndChar

StartChar: seven
Encoding: 55 55 20
Width: 600
Flags: HW
AnchorPoint: "grid_center" 300 250 mark 0
LayerCount: 2
Fore
SplineSet
300 77.9950977635 m 0
 315.804544338 77.9950977635 327.995097764 65.8038337889 327.995097764 50 c 0
 327.995097764 34.1954556622 315.803833789 22.0049022365 300 22.0049022365 c 0
 284.195455662 22.0049022365 272.004902236 34.1961662111 272.004902236 50 c 0
 272.004902236 65.8045443378 284.196166211 77.9950977635 300 77.9950977635 c 0
EndSplineSet
EndChar

StartChar: eight
Encoding: 56 56 21
Width: 600
Flags: HW
AnchorPoint: "grid_center" 300 250 mark 0
LayerCount: 2
Fore
SplineSet
500 77.9950977635 m 0
 515.804544338 77.9950977635 527.995097764 65.8038337889 527.995097764 50 c 0
 527.995097764 34.1954556622 515.803833789 22.0049022365 500 22.0049022365 c 0
 484.195455662 22.0049022365 472.004902236 34.1961662111 472.004902236 50 c 0
 472.004902236 65.8045443378 484.196166211 77.9950977635 500 77.9950977635 c 0
EndSplineSet
EndChar

StartChar: a
Encoding: 97 97 22
Width: 600
Flags: HW
HStem: 400 100<50 350>
AnchorPoint: "grid_center" 300 250 mark 0
LayerCount: 2
Fore
SplineSet
324.995097764 450 m 0
 324.995097764 436.187031342 313.812835975 425.004902236 300 425.004902236 c 2
 100 425.004902236 l 2
 86.1870313421 425.004902236 75.0049022365 436.187164025 75.0049022365 450 c 0
 75.0049022365 463.812968658 86.187164025 474.995097764 100 474.995097764 c 2
 300 474.995097764 l 2
 313.812968658 474.995097764 324.995097764 463.812835975 324.995097764 450 c 0
EndSplineSet
EndChar

StartChar: b
Encoding: 98 98 23
Width: 600
Flags: HW
HStem: 400 100<50 350>
AnchorPoint: "grid_center" 300 250 mark 0
LayerCount: 2
Fore
SplineSet
524.995097764 450 m 0
 524.995097764 436.187031342 513.812835975 425.004902236 500 425.004902236 c 2
 300 425.004902236 l 2
 286.187031342 425.004902236 275.004902236 436.187164025 275.004902236 450 c 0
 275.004902236 463.812968658 286.187164025 474.995097764 300 474.995097764 c 2
 500 474.995097764 l 2
 513.812968658 474.995097764 524.995097764 463.812835975 524.995097764 450 c 0
EndSplineSet
EndChar

StartChar: c
Encoding: 99 99 24
Width: 600
Flags: HW
VStem: 50 100<200 500>
AnchorPoint: "grid_center" 300 250 mark 0
LayerCount: 2
Fore
SplineSet
100 225.004902236 m 0
 86.1870313421 225.004902236 75.0049022365 236.187164025 75.0049022365 250 c 2
 75.0049022365 450 l 2
 75.0049022365 463.812968658 86.187164025 474.995097764 100 474.995097764 c 0
 113.812968658 474.995097764 124.995097764 463.812835975 124.995097764 450 c 2
 124.995097764 250 l 2
 124.995097764 236.187031342 113.812835975 225.004902236 100 225.004902236 c 0
EndSplineSet
EndChar

StartChar: d
Encoding: 100 100 25
Width: 600
Flags: HW
VStem: 250 100<200 500>
AnchorPoint: "grid_center" 300 250 mark 0
LayerCount: 2
Fore
SplineSet
300 225.004902236 m 0
 286.187031342 225.004902236 275.004902236 236.187164025 275.004902236 250 c 2
 275.004902236 450 l 2
 275.004902236 463.812968658 286.187164025 474.995097764 300 474.995097764 c 0
 313.812968658 474.995097764 324.995097764 463.812835975 324.995097764 450 c 2
 324.995097764 250 l 2
 324.995097764 236.187031342 313.812835975 225.004902236 300 225.004902236 c 0
EndSplineSet
EndChar

StartChar: e
Encoding: 101 101 26
Width: 600
Flags: HW
VStem: 450 100<200 500>
AnchorPoint: "grid_center" 300 250 mark 0
LayerCount: 2
Fore
SplineSet
500 225.004902236 m 0
 486.187031342 225.004902236 475.004902236 236.187164025 475.004902236 250 c 2
 475.004902236 450 l 2
 475.004902236 463.812968658 486.187164025 474.995097764 500 474.995097764 c 0
 513.812968658 474.995097764 524.995097764 463.812835975 524.995097764 450 c 2
 524.995097764 250 l 2
 524.995097764 236.187031342 513.812835975 225.004902236 500 225.004902236 c 0
EndSplineSet
EndChar

StartChar: f
Encoding: 102 102 27
Width: 600
Flags: HW
HStem: 400 100<50 350>
AnchorPoint: "grid_center" 300 250 mark 0
LayerCount: 2
Fore
SplineSet
324.995097764 250 m 0
 324.995097764 236.187031342 313.812835975 225.004902236 300 225.004902236 c 2
 100 225.004902236 l 2
 86.1870313421 225.004902236 75.0049022365 236.187164025 75.0049022365 250 c 0
 75.0049022365 263.812968658 86.187164025 274.995097764 100 274.995097764 c 2
 300 274.995097764 l 2
 313.812968658 274.995097764 324.995097764 263.812835975 324.995097764 250 c 0
EndSplineSet
EndChar

StartChar: g
Encoding: 103 103 28
Width: 600
Flags: HW
HStem: 400 100<50 350>
AnchorPoint: "grid_center" 300 250 mark 0
LayerCount: 2
Fore
SplineSet
524.995097764 250 m 0
 524.995097764 236.187031342 513.812835975 225.004902236 500 225.004902236 c 2
 300 225.004902236 l 2
 286.187031342 225.004902236 275.004902236 236.187164025 275.004902236 250 c 0
 275.004902236 263.812968658 286.187164025 274.995097764 300 274.995097764 c 2
 500 274.995097764 l 2
 513.812968658 274.995097764 524.995097764 263.812835975 524.995097764 250 c 0
EndSplineSet
EndChar

StartChar: h
Encoding: 104 104 29
Width: 600
Flags: HW
HStem: 0 21G<50 150>
VStem: 50 100<0 300>
AnchorPoint: "grid_center" 300 250 mark 0
LayerCount: 2
Fore
SplineSet
100 25.0049022365 m 0
 86.1870313421 25.0049022365 75.0049022365 36.187164025 75.0049022365 50 c 2
 75.0049022365 250 l 2
 75.0049022365 263.812968658 86.187164025 274.995097764 100 274.995097764 c 0
 113.812968658 274.995097764 124.995097764 263.812835975 124.995097764 250 c 2
 124.995097764 50 l 2
 124.995097764 36.1870313421 113.812835975 25.0049022365 100 25.0049022365 c 0
EndSplineSet
EndChar

StartChar: i
Encoding: 105 105 30
Width: 600
Flags: HW
HStem: 0 21G<250 350>
VStem: 250 100<0 300>
AnchorPoint: "grid_center" 300 250 mark 0
LayerCount: 2
Fore
SplineSet
300 25.0049022365 m 0
 286.187031342 25.0049022365 275.004902236 36.187164025 275.004902236 50 c 2
 275.004902236 250 l 2
 275.004902236 263.812968658 286.187164025 274.995097764 300 274.995097764 c 0
 313.812968658 274.995097764 324.995097764 263.812835975 324.995097764 250 c 2
 324.995097764 50 l 2
 324.995097764 36.1870313421 313.812835975 25.0049022365 300 25.0049022365 c 0
EndSplineSet
EndChar

StartChar: j
Encoding: 106 106 31
Width: 600
Flags: HW
HStem: 0 21G<450 550>
VStem: 450 100<0 300>
AnchorPoint: "grid_center" 300 250 mark 0
LayerCount: 2
Fore
SplineSet
500 25.0049022365 m 0
 486.187031342 25.0049022365 475.004902236 36.187164025 475.004902236 50 c 2
 475.004902236 250 l 2
 475.004902236 263.812968658 486.187164025 274.995097764 500 274.995097764 c 0
 513.812968658 274.995097764 524.995097764 263.812835975 524.995097764 250 c 2
 524.995097764 50 l 2
 524.995097764 36.1870313421 513.812835975 25.0049022365 500 25.0049022365 c 0
EndSplineSet
EndChar

StartChar: k
Encoding: 107 107 32
Width: 600
Flags: HW
HStem: 400 100<50 350>
AnchorPoint: "grid_center" 300 250 mark 0
LayerCount: 2
Fore
SplineSet
324.995097764 50 m 0
 324.995097764 36.1870313421 313.812835975 25.0049022365 300 25.0049022365 c 2
 100 25.0049022365 l 2
 86.1870313421 25.0049022365 75.0049022365 36.187164025 75.0049022365 50 c 0
 75.0049022365 63.8129686579 86.187164025 74.9950977635 100 74.9950977635 c 2
 300 74.9950977635 l 2
 313.812968658 74.9950977635 324.995097764 63.812835975 324.995097764 50 c 0
EndSplineSet
EndChar

StartChar: l
Encoding: 108 108 33
Width: 600
Flags: HW
HStem: 400 100<50 350>
AnchorPoint: "grid_center" 300 250 mark 0
LayerCount: 2
Fore
SplineSet
524.995097764 50 m 0
 524.995097764 36.1870313421 513.812835975 25.0049022365 500 25.0049022365 c 2
 300 25.0049022365 l 2
 286.187031342 25.0049022365 275.004902236 36.187164025 275.004902236 50 c 0
 275.004902236 63.8129686579 286.187164025 74.9950977635 300 74.9950977635 c 2
 500 74.9950977635 l 2
 513.812968658 74.9950977635 524.995097764 63.812835975 524.995097764 50 c 0
EndSplineSet
EndChar

StartChar: .notdef
Encoding: 256 -1 34
Width: 600
Flags: HW
HStem: 0 21G<50 150 250 350 450 550> 0 21G<50 150 250 350 450 550> 80 20G<50 150 250 350 450 550> 200 100<50 150 450 550> 400 100<50 150 250 350 450 550>
VStem: 50 100<0 100 200 300 400 500> 250 100<0 100 400 500> 450 100<0 100 200 300 400 500>
CounterMasks: 1 07
LayerCount: 2
Fore
SplineSet
100 477.995097764 m 0
 115.804544338 477.995097764 127.995097764 465.803833789 127.995097764 450 c 0
 127.995097764 434.195455662 115.803833789 422.004902236 100 422.004902236 c 0
 84.1954556622 422.004902236 72.0049022365 434.196166211 72.0049022365 450 c 0
 72.0049022365 465.804544338 84.1961662111 477.995097764 100 477.995097764 c 0
300 477.995097764 m 0
 315.804544338 477.995097764 327.995097764 465.803833789 327.995097764 450 c 0
 327.995097764 434.195455662 315.803833789 422.004902236 300 422.004902236 c 0
 284.195455662 422.004902236 272.004902236 434.196166211 272.004902236 450 c 0
 272.004902236 465.804544338 284.196166211 477.995097764 300 477.995097764 c 0
500 477.995097764 m 0
 515.804544338 477.995097764 527.995097764 465.803833789 527.995097764 450 c 0
 527.995097764 434.195455662 515.803833789 422.004902236 500 422.004902236 c 0
 484.195455662 422.004902236 472.004902236 434.196166211 472.004902236 450 c 0
 472.004902236 465.804544338 484.196166211 477.995097764 500 477.995097764 c 0
100 277.995097764 m 0
 115.804544338 277.995097764 127.995097764 265.803833789 127.995097764 250 c 0
 127.995097764 234.195455662 115.803833789 222.004902236 100 222.004902236 c 0
 84.1954556622 222.004902236 72.0049022365 234.196166211 72.0049022365 250 c 0
 72.0049022365 265.804544338 84.1961662111 277.995097764 100 277.995097764 c 0
500 277.995097764 m 0
 515.804544338 277.995097764 527.995097764 265.803833789 527.995097764 250 c 0
 527.995097764 234.195455662 515.803833789 222.004902236 500 222.004902236 c 0
 484.195455662 222.004902236 472.004902236 234.196166211 472.004902236 250 c 0
 472.004902236 265.804544338 484.196166211 277.995097764 500 277.995097764 c 0
100 77.9950977635 m 0
 115.804544338 77.9950977635 127.995097764 65.8038337889 127.995097764 50 c 0
 127.995097764 34.1954556622 115.803833789 22.0049022365 100 22.0049022365 c 0
 84.1954556622 22.0049022365 72.0049022365 34.1961662111 72.0049022365 50 c 0
 72.0049022365 65.8045443378 84.1961662111 77.9950977635 100 77.9950977635 c 0
300 77.9950977635 m 0
 315.804544338 77.9950977635 327.995097764 65.8038337889 327.995097764 50 c 0
 327.995097764 34.1954556622 315.803833789 22.0049022365 300 22.0049022365 c 0
 284.195455662 22.0049022365 272.004902236 34.1961662111 272.004902236 50 c 0
 272.004902236 65.8045443378 284.196166211 77.9950977635 300 77.9950977635 c 0
500 77.9950977635 m 0
 515.804544338 77.9950977635 527.995097764 65.8038337889 527.995097764 50 c 0
 527.995097764 34.1954556622 515.803833789 22.0049022365 500 22.0049022365 c 0
 484.195455662 22.0049022365 472.004902236 34.1961662111 472.004902236 50 c 0
 472.004902236 65.8045443378 484.196166211 77.9950977635 500 77.9950977635 c 0
EndSplineSet
EndChar

StartChar: zero
Encoding: 48 48 35
Width: 600
Flags: HW
AnchorPoint: "grid_center" 300 250 mark 0
LayerCount: 2
Fore
SplineSet
100 477.995097764 m 0
 115.804544338 477.995097764 127.995097764 465.803833789 127.995097764 450 c 0
 127.995097764 434.195455662 115.803833789 422.004902236 100 422.004902236 c 0
 84.1954556622 422.004902236 72.0049022365 434.196166211 72.0049022365 450 c 0
 72.0049022365 465.804544338 84.1961662111 477.995097764 100 477.995097764 c 0
EndSplineSet
EndChar

StartChar: period
Encoding: 46 46 36
Width: 300
Flags: HW
LayerCount: 2
Fore
SplineSet
150 77.9950977635 m 0
 165.804544338 77.9950977635 177.995097764 65.8038337889 177.995097764 50 c 0
 177.995097764 34.1954556622 165.803833789 22.0049022365 150 22.0049022365 c 0
 134.195455662 22.0049022365 122.004902236 34.1961662111 122.004902236 50 c 0
 122.004902236 65.8045443378 134.196166211 77.9950977635 150 77.9950977635 c 0
EndSplineSet
EndChar

StartChar: periodcentered
Encoding: 183 183 37
Width: 300
Flags: HW
LayerCount: 2
Fore
SplineSet
150 277.995097764 m 0
 165.804544338 277.995097764 177.995097764 265.803833789 177.995097764 250 c 0
 177.995097764 234.195455662 165.803833789 222.004902236 150 222.004902236 c 0
 134.195455662 222.004902236 122.004902236 234.196166211 122.004902236 250 c 0
 122.004902236 265.804544338 134.196166211 277.995097764 150 277.995097764 c 0
EndSplineSet
EndChar

StartChar: endash
Encoding: 150 8211 38
Width: 500
Flags: HW
HStem: 200 100<50 350>
LayerCount: 2
Fore
SplineSet
374.995097764 250 m 0
 374.995097764 236.187031342 363.812835975 225.004902236 350 225.004902236 c 2
 150 225.004902236 l 2
 136.187031342 225.004902236 125.004902236 236.187164025 125.004902236 250 c 0
 125.004902236 263.812968658 136.187164025 274.995097764 150 274.995097764 c 2
 350 274.995097764 l 2
 363.812968658 274.995097764 374.995097764 263.812835975 374.995097764 250 c 0
EndSplineSet
EndChar

StartChar: emdash
Encoding: 151 8212 39
Width: 600
Flags: HW
HStem: 200 100<50 350>
LayerCount: 2
Fore
SplineSet
474.995097764 250 m 0
 474.995097764 236.187031342 463.812835975 225.004902236 450 225.004902236 c 2
 150 225.004902236 l 2
 136.187031342 225.004902236 125.004902236 236.187164025 125.004902236 250 c 0
 125.004902236 263.812968658 136.187164025 274.995097764 150 274.995097764 c 2
 450 274.995097764 l 2
 463.812968658 274.995097764 474.995097764 263.812835975 474.995097764 250 c 0
EndSplineSet
EndChar

StartChar: quotesingle
Encoding: 39 39 40
Width: 200
Flags: HW
VStem: 50 100<200 500>
LayerCount: 2
Fore
SplineSet
100 325.004902236 m 0
 86.1870313421 325.004902236 75.0049022365 336.187164025 75.0049022365 350 c 2
 75.0049022365 550 l 2
 75.0049022365 563.812968658 86.187164025 574.995097764 100 574.995097764 c 0
 113.812968658 574.995097764 124.995097764 563.812835975 124.995097764 550 c 2
 124.995097764 350 l 2
 124.995097764 336.187031342 113.812835975 325.004902236 100 325.004902236 c 0
EndSplineSet
EndChar

StartChar: comma
Encoding: 44 44 41
Width: 300
Flags: HW
LayerCount: 2
Fore
SplineSet
150 -74.9950977635 m 0
 136.187031342 -74.9950977635 125.004902236 -63.812835975 125.004902236 -50 c 2
 125.004902236 50 l 2
 125.004902236 63.8129686579 136.187164025 74.9950977635 150 74.9950977635 c 0
 163.812968658 74.9950977635 174.995097764 63.812835975 174.995097764 50 c 2
 174.995097764 -50 l 2
 174.995097764 -63.8129686579 163.812835975 -74.9950977635 150 -74.9950977635 c 0
EndSplineSet
EndChar

StartChar: quoteleft
Encoding: 145 8216 42
Width: 200
Flags: HW
VStem: 50 100<200 500>
LayerCount: 2
Fore
SplineSet
100 325.004902236 m 0
 86.1870313421 325.004902236 75.0049022365 336.187164025 75.0049022365 350 c 2
 75.0049022365 550 l 2
 75.0049022365 563.812968658 86.187164025 574.995097764 100 574.995097764 c 0
 113.812968658 574.995097764 124.995097764 563.812835975 124.995097764 550 c 2
 124.995097764 350 l 2
 124.995097764 336.187031342 113.812835975 325.004902236 100 325.004902236 c 0
EndSplineSet
EndChar

StartChar: quoteright
Encoding: 146 8217 43
Width: 200
Flags: HW
VStem: 50 100<200 500>
LayerCount: 2
Fore
SplineSet
100 325.004902236 m 0
 86.1870313421 325.004902236 75.0049022365 336.187164025 75.0049022365 350 c 2
 75.0049022365 550 l 2
 75.0049022365 563.812968658 86.187164025 574.995097764 100 574.995097764 c 0
 113.812968658 574.995097764 124.995097764 563.812835975 124.995097764 550 c 2
 124.995097764 350 l 2
 124.995097764 336.187031342 113.812835975 325.004902236 100 325.004902236 c 0
EndSplineSet
EndChar

StartChar: bullet
Encoding: 149 8226 44
Width: 300
Flags: HW
LayerCount: 2
Fore
SplineSet
150 277.995097764 m 0
 165.804544338 277.995097764 177.995097764 265.803833789 177.995097764 250 c 0
 177.995097764 234.195455662 165.803833789 222.004902236 150 222.004902236 c 0
 134.195455662 222.004902236 122.004902236 234.196166211 122.004902236 250 c 0
 122.004902236 265.804544338 134.196166211 277.995097764 150 277.995097764 c 0
EndSplineSet
EndChar

StartChar: bar
Encoding: 124 124 45
Width: 300
Flags: HW
VStem: 50 100<200 500>
LayerCount: 2
Fore
SplineSet
150 25.0049022365 m 0
 136.187031342 25.0049022365 125.004902236 36.187164025 125.004902236 50 c 2
 125.004902236 450 l 2
 125.004902236 463.812968658 136.187164025 474.995097764 150 474.995097764 c 0
 163.812968658 474.995097764 174.995097764 463.812835975 174.995097764 450 c 2
 174.995097764 50 l 2
 174.995097764 36.1870313421 163.812835975 25.0049022365 150 25.0049022365 c 0
EndSplineSet
EndChar

StartChar: degree
Encoding: 176 176 46
Width: 300
Flags: HW
LayerCount: 2
Fore
SplineSet
150 477.995097764 m 0
 165.804544338 477.995097764 177.995097764 465.803833789 177.995097764 450 c 0
 177.995097764 434.195455662 165.803833789 422.004902236 150 422.004902236 c 0
 134.195455662 422.004902236 122.004902236 434.196166211 122.004902236 450 c 0
 122.004902236 465.804544338 134.196166211 477.995097764 150 477.995097764 c 0
EndSplineSet
EndChar

StartChar: hyphen
Encoding: 45 45 47
Width: 400
Flags: HW
HStem: 200 100<50 350>
LayerCount: 2
Fore
SplineSet
274.995097764 250 m 0
 274.995097764 236.187031342 263.812835975 225.004902236 250 225.004902236 c 2
 150 225.004902236 l 2
 136.187031342 225.004902236 125.004902236 236.187164025 125.004902236 250 c 0
 125.004902236 263.812968658 136.187164025 274.995097764 150 274.995097764 c 2
 250 274.995097764 l 2
 263.812968658 274.995097764 274.995097764 263.812835975 274.995097764 250 c 0
EndSplineSet
EndChar

StartChar: colon
Encoding: 58 58 48
Width: 300
Flags: HW
LayerCount: 2
Fore
SplineSet
150 377.995097764 m 0
 165.804544338 377.995097764 177.995097764 365.803833789 177.995097764 350 c 0
 177.995097764 334.195455662 165.803833789 322.004902236 150 322.004902236 c 0
 134.195455662 322.004902236 122.004902236 334.196166211 122.004902236 350 c 0
 122.004902236 365.804544338 134.196166211 377.995097764 150 377.995097764 c 0
150 77.9950977635 m 0
 165.804544338 77.9950977635 177.995097764 65.8038337889 177.995097764 50 c 0
 177.995097764 34.1954556622 165.803833789 22.0049022365 150 22.0049022365 c 0
 134.195455662 22.0049022365 122.004902236 34.1961662111 122.004902236 50 c 0
 122.004902236 65.8045443378 134.196166211 77.9950977635 150 77.9950977635 c 0
EndSplineSet
EndChar

StartChar: semicolon
Encoding: 59 59 49
Width: 300
Flags: HW
LayerCount: 2
Fore
SplineSet
150 377.995097764 m 0
 165.804544338 377.995097764 177.995097764 365.803833789 177.995097764 350 c 0
 177.995097764 334.195455662 165.803833789 322.004902236 150 322.004902236 c 0
 134.195455662 322.004902236 122.004902236 334.196166211 122.004902236 350 c 0
 122.004902236 365.804544338 134.196166211 377.995097764 150 377.995097764 c 0
150 -74.9950977635 m 0
 136.187031342 -74.9950977635 125.004902236 -63.812835975 125.004902236 -50 c 2
 125.004902236 50 l 2
 125.004902236 63.8129686579 136.187164025 74.9950977635 150 74.9950977635 c 0
 163.812968658 74.9950977635 174.995097764 63.812835975 174.995097764 50 c 2
 174.995097764 -50 l 2
 174.995097764 -63.8129686579 163.812835975 -74.9950977635 150 -74.9950977635 c 0
EndSplineSet
EndChar

StartChar: quotedbl
Encoding: 34 34 51
Width: 400
Flags: HW
VStem: 50 100<200 500>
LayerCount: 2
Fore
SplineSet
100 325.004902236 m 0
 86.1870313421 325.004902236 75.0049022365 336.187164025 75.0049022365 350 c 2
 75.0049022365 550 l 2
 75.0049022365 563.812968658 86.187164025 574.995097764 100 574.995097764 c 0
 113.812968658 574.995097764 124.995097764 563.812835975 124.995097764 550 c 2
 124.995097764 350 l 2
 124.995097764 336.187031342 113.812835975 325.004902236 100 325.004902236 c 0
300 325.004902236 m 0
 286.187031342 325.004902236 275.004902236 336.187164025 275.004902236 350 c 2
 275.004902236 550 l 2
 275.004902236 563.812968658 286.187164025 574.995097764 300 574.995097764 c 0
 313.812968658 574.995097764 324.995097764 563.812835975 324.995097764 550 c 2
 324.995097764 350 l 2
 324.995097764 336.187031342 313.812835975 325.004902236 300 325.004902236 c 0
EndSplineSet
EndChar

StartChar: quotedblleft
Encoding: 147 8220 52
Width: 400
Flags: HW
VStem: 50 100<200 500>
LayerCount: 2
Fore
SplineSet
100 325.004902236 m 0
 86.1870313421 325.004902236 75.0049022365 336.187164025 75.0049022365 350 c 2
 75.0049022365 550 l 2
 75.0049022365 563.812968658 86.187164025 574.995097764 100 574.995097764 c 0
 113.812968658 574.995097764 124.995097764 563.812835975 124.995097764 550 c 2
 124.995097764 350 l 2
 124.995097764 336.187031342 113.812835975 325.004902236 100 325.004902236 c 0
300 325.004902236 m 0
 286.187031342 325.004902236 275.004902236 336.187164025 275.004902236 350 c 2
 275.004902236 550 l 2
 275.004902236 563.812968658 286.187164025 574.995097764 300 574.995097764 c 0
 313.812968658 574.995097764 324.995097764 563.812835975 324.995097764 550 c 2
 324.995097764 350 l 2
 324.995097764 336.187031342 313.812835975 325.004902236 300 325.004902236 c 0
EndSplineSet
EndChar

StartChar: quotedblright
Encoding: 148 8221 53
Width: 400
Flags: HW
VStem: 50 100<200 500>
LayerCount: 2
Fore
SplineSet
100 325.004902236 m 0
 86.1870313421 325.004902236 75.0049022365 336.187164025 75.0049022365 350 c 2
 75.0049022365 550 l 2
 75.0049022365 563.812968658 86.187164025 574.995097764 100 574.995097764 c 0
 113.812968658 574.995097764 124.995097764 563.812835975 124.995097764 550 c 2
 124.995097764 350 l 2
 124.995097764 336.187031342 113.812835975 325.004902236 100 325.004902236 c 0
300 325.004902236 m 0
 286.187031342 325.004902236 275.004902236 336.187164025 275.004902236 350 c 2
 275.004902236 550 l 2
 275.004902236 563.812968658 286.187164025 574.995097764 300 574.995097764 c 0
 313.812968658 574.995097764 324.995097764 563.812835975 324.995097764 550 c 2
 324.995097764 350 l 2
 324.995097764 336.187031342 313.812835975 325.004902236 300 325.004902236 c 0
EndSplineSet
EndChar

StartChar: ellipsis
Encoding: 133 8230 54
Width: 700
Flags: HW
LayerCount: 2
Fore
SplineSet
150 77.9950977635 m 0
 165.804544338 77.9950977635 177.995097764 65.8038337889 177.995097764 50 c 0
 177.995097764 34.1954556622 165.803833789 22.0049022365 150 22.0049022365 c 0
 134.195455662 22.0049022365 122.004902236 34.1961662111 122.004902236 50 c 0
 122.004902236 65.8045443378 134.196166211 77.9950977635 150 77.9950977635 c 0
350 77.9950977635 m 0
 365.804544338 77.9950977635 377.995097764 65.8038337889 377.995097764 50 c 0
 377.995097764 34.1954556622 365.803833789 22.0049022365 350 22.0049022365 c 0
 334.195455662 22.0049022365 322.004902236 34.1961662111 322.004902236 50 c 0
 322.004902236 65.8045443378 334.196166211 77.9950977635 350 77.9950977635 c 0
550 77.9950977635 m 0
 565.804544338 77.9950977635 577.995097764 65.8038337889 577.995097764 50 c 0
 577.995097764 34.1954556622 565.803833789 22.0049022365 550 22.0049022365 c 0
 534.195455662 22.0049022365 522.004902236 34.1961662111 522.004902236 50 c 0
 522.004902236 65.8045443378 534.196166211 77.9950977635 550 77.9950977635 c 0
EndSplineSet
EndChar
